<svg width="41" height="18" viewBox="0 0 41 18" fill="none" xmlns="http://www.w3.org/2000/svg">
<path d="M14.5063 1.9114H5.64557" stroke="#4F46E5" stroke-width="2" stroke-miterlimit="10" stroke-linecap="round" stroke-linejoin="round"/>
<path d="M13.6203 16.0886H5.64557" stroke="#4F46E5" stroke-width="2" stroke-miterlimit="10" stroke-linecap="round" stroke-linejoin="round"/>
<path d="M10.962 9.00001H1.21519" stroke="#4F46E5" stroke-width="2" stroke-miterlimit="10" stroke-linecap="round" stroke-linejoin="round"/>
<path fill-rule="evenodd" clip-rule="evenodd" d="M20.2709 3.31443C20.685 2.62431 21.472 1.91139 22.557 1.91139H29.6456C30.6598 1.91139 31.4844 2.34894 32.101 2.84216C32.1301 2.8655 32.158 2.89043 32.1844 2.91685C32.6504 3.38286 33.2153 3.97348 33.6597 4.44334C33.8828 4.67916 34.0771 4.88626 34.2158 5.03446L34.2234 5.04267L34.3768 5.0775C34.6636 5.14283 35.065 5.23522 35.5238 5.34355C36.4345 5.55858 37.5838 5.83932 38.5129 6.0971C38.7678 6.16231 39.0154 6.26564 39.2476 6.40115C39.3197 6.44114 39.389 6.48544 39.4552 6.53372C40.2282 7.07167 40.7848 7.97744 40.7848 9V12.038C40.7848 12.5719 40.6024 13.0955 40.2097 13.4882C39.817 13.8809 39.2934 14.0633 38.7595 14.0633H37.574C37.1569 15.2432 36.0316 16.0886 34.7089 16.0886C33.3861 16.0886 32.2608 15.2432 31.8438 14.0633H27.4474C27.0303 15.2432 25.905 16.0886 24.5823 16.0886C23.2595 16.0886 22.1342 15.2432 21.7172 14.0633H20.5316C19.9977 14.0633 19.4741 13.8809 19.0814 13.4882C18.6887 13.0955 18.5063 12.5719 18.5063 12.038V7.98734C18.5063 7.46213 18.5933 6.94054 18.7636 6.44372C18.7767 6.40556 18.792 6.36822 18.8096 6.3319L20.2273 3.39519C20.2406 3.36762 20.2551 3.34068 20.2709 3.31443ZM33.8317 12.5443H35.586C35.6722 12.6933 35.7215 12.8662 35.7215 13.0506C35.7215 13.6099 35.2681 14.0633 34.7089 14.0633C34.1496 14.0633 33.6962 13.6099 33.6962 13.0506C33.6962 12.8662 33.7455 12.6933 33.8317 12.5443ZM25.5949 13.0466L25.5949 13.0506L25.5949 13.0547C25.5928 13.6121 25.1402 14.0633 24.5823 14.0633C24.023 14.0633 23.5696 13.6099 23.5696 13.0506C23.5696 12.4914 24.023 12.038 24.5823 12.038C25.1402 12.038 25.5928 12.4892 25.5949 13.0466Z" fill="#4F46E5"/>
</svg>
